<svg width="24" height="24" viewBox="0 0 24 24" fill="none" xmlns="http://www.w3.org/2000/svg">
<path d="M11.562 3.266C11.6052 3.18761 11.6686 3.12223 11.7456 3.0767C11.8227 3.03117 11.9105 3.00716 12 3.00716C12.0895 3.00716 12.1773 3.03117 12.2544 3.0767C12.3314 3.12223 12.3948 3.18761 12.438 3.266L15.39 8.87C15.4604 8.99976 15.5586 9.11233 15.6777 9.19962C15.7968 9.28691 15.9337 9.34675 16.0786 9.37486C16.2235 9.40297 16.3729 9.39863 16.5159 9.36218C16.659 9.32572 16.7922 9.25804 16.906 9.164L21.183 5.5C21.2651 5.43322 21.3663 5.39422 21.472 5.3886C21.5776 5.38299 21.6824 5.41105 21.7711 5.46875C21.8598 5.52645 21.9279 5.61081 21.9657 5.70969C22.0034 5.80857 22.0087 5.91687 21.981 6.019L19.147 16.265C19.0891 16.4747 18.9645 16.6598 18.792 16.7922C18.6195 16.9247 18.4085 16.9973 18.191 16.999H5.81C5.59233 16.9975 5.38111 16.925 5.20839 16.7925C5.03567 16.66 4.91089 16.4748 4.853 16.265L2.02 6.02C1.99225 5.91787 1.99762 5.80957 2.03534 5.71069C2.07306 5.61181 2.14118 5.52745 2.2299 5.46975C2.31862 5.41205 2.42335 5.38399 2.52904 5.3896C2.63472 5.39522 2.73589 5.43422 2.818 5.501L7.094 9.165C7.2078 9.25904 7.341 9.32672 7.48406 9.36318C7.62712 9.39964 7.77647 9.40397 7.9214 9.37586C8.06632 9.34775 8.20323 9.28791 8.32229 9.20062C8.44135 9.11333 8.5396 9.00076 8.61 8.871L11.562 3.266Z" stroke="#E4E4E4" stroke-width="2" stroke-linecap="round" stroke-linejoin="round"/>
<path d="M5 21H19" stroke="#E4E4E4" stroke-width="2" stroke-linecap="round" stroke-linejoin="round"/>
</svg>
