<svg width="116" height="75" viewBox="0 0 116 75" fill="none" xmlns="http://www.w3.org/2000/svg">
<path d="M1.3335 60L13.6215 43.296L1.5255 26.976H13.4935L19.8295 36.192L26.2295 26.976H37.7495L25.5255 43.488L37.9415 60H25.9095L19.3815 50.528L12.7895 60H1.3335ZM58.0765 60.64C54.7912 60.64 51.8472 59.8933 49.2445 58.4C46.6418 56.864 44.5725 54.816 43.0365 52.256C41.5432 49.6533 40.7965 46.7307 40.7965 43.488C40.7965 40.288 41.5432 37.408 43.0365 34.848C44.5725 32.288 46.6418 30.2613 49.2445 28.768C51.8472 27.232 54.7698 26.464 58.0125 26.464C61.2978 26.464 64.2205 27.232 66.7805 28.768C69.3832 30.2613 71.4312 32.288 72.9245 34.848C74.4605 37.408 75.2285 40.3093 75.2285 43.552C75.2285 46.752 74.4605 49.6533 72.9245 52.256C71.4312 54.816 69.3832 56.864 66.7805 58.4C64.2205 59.8933 61.3192 60.64 58.0765 60.64ZM58.0125 51.936C59.4205 51.936 60.6578 51.5733 61.7245 50.848C62.7912 50.1227 63.6232 49.1413 64.2205 47.904C64.8178 46.624 65.1165 45.1733 65.1165 43.552C65.1165 41.9307 64.8178 40.5013 64.2205 39.264C63.6232 37.984 62.7912 36.9813 61.7245 36.256C60.6578 35.5307 59.4205 35.168 58.0125 35.168C56.6472 35.168 55.4098 35.5307 54.3005 36.256C53.2338 36.9813 52.4018 37.984 51.8045 39.264C51.2072 40.5013 50.9085 41.9307 50.9085 43.552C50.9085 45.1733 51.2072 46.624 51.8045 47.904C52.4018 49.1413 53.2338 50.1227 54.3005 50.848C55.4098 51.5733 56.6472 51.936 58.0125 51.936ZM80.8995 60V52H88.0675V34.976H80.8995V26.976H98.4355V35.296C99.6302 32.2667 101.124 30.048 102.916 28.64C104.75 27.1893 106.82 26.464 109.124 26.464C110.105 26.464 110.873 26.528 111.428 26.656C112.025 26.784 112.729 27.04 113.54 27.424V36.704C112.729 36.32 111.748 36.0427 110.596 35.872C109.486 35.6587 108.377 35.552 107.268 35.552C105.476 35.552 103.79 35.9573 102.212 36.768C100.633 37.536 99.3742 38.6027 98.4355 39.968V52H105.988V60H80.8995Z" fill="white"/>
<path d="M16.3281 18L14.7761 9.984H16.2641L17.1761 15.488L18.4721 9.984H19.8481L21.1761 15.488L22.0721 9.984H23.4801L21.9441 18H20.4401L19.1441 12.352L17.8641 18H16.3281ZM28.6739 8.416C28.3112 8.416 28.0019 8.288 27.7459 8.032C27.5005 7.776 27.3779 7.472 27.3779 7.12C27.3779 6.768 27.5005 6.46933 27.7459 6.224C28.0019 5.968 28.3112 5.84 28.6739 5.84C29.0259 5.84 29.3245 5.968 29.5699 6.224C29.8259 6.46933 29.9539 6.768 29.9539 7.12C29.9539 7.472 29.8259 7.776 29.5699 8.032C29.3245 8.288 29.0259 8.416 28.6739 8.416ZM30.7219 18.16C29.7512 18.16 29.0152 17.9307 28.5139 17.472C28.0125 17.0133 27.7619 16.336 27.7619 15.44V11.424H24.8819V9.984H29.5699V15.248C29.5699 15.728 29.6819 16.0747 29.9059 16.288C30.1405 16.5013 30.4925 16.608 30.9619 16.608C31.2285 16.608 31.4899 16.5813 31.7459 16.528C32.0019 16.4747 32.2845 16.3893 32.5939 16.272V17.792C32.3485 17.888 32.0552 17.9733 31.7139 18.048C31.3725 18.1227 31.0419 18.16 30.7219 18.16ZM34.6676 18V16.672L39.4196 11.536L34.6996 11.568V9.984H41.8036V11.312L37.0196 16.464L41.8996 16.448V18H34.6676ZM46.9814 18.144C46.416 18.144 45.9147 18.0427 45.4774 17.84C45.04 17.6267 44.6987 17.3387 44.4534 16.976C44.2187 16.6133 44.1014 16.192 44.1014 15.712C44.1014 15.2213 44.224 14.8 44.4694 14.448C44.7254 14.096 45.0827 13.824 45.5414 13.632C46.0107 13.44 46.5654 13.344 47.2054 13.344C47.5894 13.344 47.9627 13.3867 48.3254 13.472C48.688 13.5467 49.0507 13.6747 49.4134 13.856V13.056C49.4134 12.4907 49.2587 12.0693 48.9494 11.792C48.64 11.504 48.1654 11.36 47.5254 11.36C47.1734 11.36 46.8 11.4133 46.4054 11.52C46.0214 11.6267 45.5894 11.8027 45.1094 12.048L44.4214 10.736C45.0507 10.4267 45.6427 10.2027 46.1974 10.064C46.7627 9.92533 47.3227 9.856 47.8774 9.856C48.9334 9.856 49.7494 10.1173 50.3254 10.64C50.912 11.1627 51.2054 11.904 51.2054 12.864V18H49.4134V17.152C49.0507 17.4933 48.672 17.744 48.2774 17.904C47.8827 18.064 47.4507 18.144 46.9814 18.144ZM45.7974 15.664C45.7974 16.0373 45.9467 16.336 46.2454 16.56C46.5547 16.7733 46.9654 16.88 47.4774 16.88C47.8507 16.88 48.1974 16.8213 48.5174 16.704C48.8374 16.5867 49.136 16.4107 49.4134 16.176V14.912C49.1254 14.7733 48.8267 14.672 48.5174 14.608C48.208 14.544 47.8774 14.512 47.5254 14.512C46.992 14.512 46.5707 14.6187 46.2614 14.832C45.952 15.0347 45.7974 15.312 45.7974 15.664ZM53.9351 18V16.576H55.9191V11.424H53.9351V9.984H57.7271V11.888C57.9938 11.216 58.3565 10.7093 58.8151 10.368C59.2845 10.0267 59.8178 9.856 60.4151 9.856C60.6605 9.856 60.8685 9.87733 61.0391 9.92C61.2098 9.952 61.4125 10.0107 61.6471 10.096V11.744C61.4125 11.648 61.1618 11.5787 60.8951 11.536C60.6391 11.4827 60.3885 11.456 60.1431 11.456C59.6205 11.456 59.1458 11.584 58.7191 11.84C58.2925 12.0853 57.9618 12.4373 57.7271 12.896V16.576H59.8391V18H53.9351ZM66.6329 18.112C65.9609 18.112 65.3475 17.9307 64.7929 17.568C64.2489 17.2053 63.8115 16.7147 63.4809 16.096C63.1609 15.4667 63.0009 14.768 63.0009 14C63.0009 13.2213 63.1662 12.5227 63.4969 11.904C63.8275 11.2853 64.2702 10.7947 64.8249 10.432C65.3795 10.0587 65.9929 9.872 66.6649 9.872C67.1022 9.872 67.5022 9.95733 67.8649 10.128C68.2382 10.2987 68.5689 10.5387 68.8569 10.848V6.512L70.6649 6.208V18H68.9049V17.072C68.6169 17.4133 68.2809 17.6747 67.8969 17.856C67.5129 18.0267 67.0915 18.112 66.6329 18.112ZM67.0649 16.624C67.4275 16.624 67.7635 16.5547 68.0729 16.416C68.3822 16.2773 68.6435 16.08 68.8569 15.824V12.176C68.6435 11.92 68.3769 11.7227 68.0569 11.584C67.7475 11.4347 67.4169 11.36 67.0649 11.36C66.6169 11.36 66.2222 11.472 65.8809 11.696C65.5395 11.92 65.2729 12.2293 65.0809 12.624C64.8889 13.0187 64.7929 13.4773 64.7929 14C64.7929 14.5013 64.8889 14.9547 65.0809 15.36C65.2729 15.7547 65.5395 16.064 65.8809 16.288C66.2222 16.512 66.6169 16.624 67.0649 16.624ZM86.2844 18.16C85.527 18.16 84.8444 17.9787 84.2364 17.616C83.6284 17.2427 83.1484 16.7467 82.7964 16.128C82.4444 15.4987 82.2684 14.7893 82.2684 14C82.2684 13.2213 82.4444 12.5227 82.7964 11.904C83.1484 11.2747 83.6284 10.7787 84.2364 10.416C84.8444 10.0427 85.527 9.856 86.2844 9.856C87.0417 9.856 87.7244 10.0427 88.3324 10.416C88.9404 10.7787 89.4204 11.2747 89.7724 11.904C90.1244 12.5227 90.3004 13.2213 90.3004 14C90.3004 14.7893 90.1244 15.4987 89.7724 16.128C89.4204 16.7467 88.9404 17.2427 88.3324 17.616C87.735 17.9787 87.0524 18.16 86.2844 18.16ZM86.2844 16.608C86.7217 16.608 87.1057 16.496 87.4364 16.272C87.7777 16.048 88.0444 15.7387 88.2364 15.344C88.439 14.9493 88.5404 14.5013 88.5404 14C88.5404 13.4987 88.439 13.056 88.2364 12.672C88.0444 12.2773 87.7777 11.968 87.4364 11.744C87.1057 11.52 86.7217 11.408 86.2844 11.408C85.847 11.408 85.4577 11.5253 85.1164 11.76C84.7857 11.984 84.519 12.2933 84.3164 12.688C84.1244 13.072 84.0284 13.5093 84.0284 14C84.0284 14.5013 84.1244 14.9493 84.3164 15.344C84.519 15.7387 84.7857 16.048 85.1164 16.272C85.4577 16.496 85.847 16.608 86.2844 16.608ZM94.3421 18V11.424H91.7821V9.984H94.3421V8.768C94.3421 6.86933 95.4248 5.92 97.5901 5.92C97.8995 5.92 98.2301 5.952 98.5821 6.016C98.9341 6.06933 99.2595 6.144 99.5581 6.24V7.808C99.1635 7.66933 98.8221 7.57867 98.5341 7.536C98.2568 7.49333 97.9581 7.472 97.6381 7.472C97.1368 7.472 96.7635 7.58933 96.5181 7.824C96.2835 8.048 96.1661 8.43733 96.1661 8.992V9.984H99.5581V11.424H96.1661V18H94.3421Z" fill="white"/>
</svg>
