<svg width="739" height="306" viewBox="0 0 739 306" fill="none" xmlns="http://www.w3.org/2000/svg">
<rect width="739" height="306" fill="#131023"/>
<mask id="path-1-inside-1" fill="white">
<rect x="32.5913" y="38.0231" width="228.818" height="228.818" rx="12"/>
</mask>
<rect x="32.5913" y="38.0231" width="228.818" height="228.818" rx="12" fill="#131023" stroke="white" stroke-width="40" mask="url(#path-1-inside-1)"/>
<path d="M92.081 111L137.219 138.882V151.902L92.2542 179.784L84 167.398L121.519 145.392L84 124.077L92.081 111Z" fill="white"/>
<path d="M153.278 203V188.713H211V203H153.278Z" fill="white"/>
<path d="M376.25 153.5L335.5 94.625H367.75L392.125 133.25L415.375 94.625H446.375L408.25 152.625L451.25 214.125H418.5L392.375 173.625L367.75 214.125H335L376.25 153.5Z" fill="white"/>
<path d="M499.115 218.25C488.532 218.25 478.907 215.542 470.24 210.125C461.573 204.708 454.74 197.167 449.74 187.5C444.74 177.833 442.24 166.833 442.24 154.5C442.24 142.917 444.782 132.375 449.865 122.875C454.948 113.292 461.823 105.75 470.49 100.25C479.24 94.75 488.782 92 499.115 92C509.448 92 518.948 94.75 527.615 100.25C536.365 105.75 543.282 113.292 548.365 122.875C553.448 132.375 555.99 142.917 555.99 154.5C555.99 166.833 553.49 177.833 548.49 187.5C543.49 197.167 536.657 204.708 527.99 210.125C519.323 215.542 509.698 218.25 499.115 218.25ZM499.115 195.125C504.782 195.125 509.698 193.458 513.865 190.125C518.115 186.708 521.365 181.958 523.615 175.875C525.865 169.708 526.99 162.583 526.99 154.5C526.99 146.333 525.865 139.292 523.615 133.375C521.365 127.458 518.115 122.917 513.865 119.75C509.698 116.583 504.782 115 499.115 115C493.698 115 488.907 116.583 484.74 119.75C480.657 122.917 477.448 127.5 475.115 133.5C472.865 139.417 471.74 146.417 471.74 154.5C471.74 162.667 472.823 169.833 474.99 176C477.24 182.083 480.407 186.792 484.49 190.125C488.573 193.458 493.448 195.125 499.115 195.125Z" fill="white"/>
<path d="M627.855 92C633.772 92 639.647 93.125 645.48 95.375C651.397 97.5417 656.647 100.792 661.23 105.125L647.48 132.625L644.855 131.375C644.688 130.792 644.522 129.958 644.355 128.875C644.105 127.292 643.73 125.958 643.23 124.875C642.813 123.708 641.897 122.542 640.48 121.375C636.313 118.042 631.188 116.375 625.105 116.375C619.022 116.375 613.522 117.833 608.605 120.75C603.688 123.583 599.813 127.667 596.98 133C594.23 138.333 592.855 144.542 592.855 151.625V214.125H563.855V94.625H593.355V111.75C596.522 105.583 601.147 100.75 607.23 97.25C613.397 93.75 620.272 92 627.855 92Z" fill="white"/>
</svg>
